<svg width="16" height="16" viewBox="0 0 16 16" fill="none" xmlns="http://www.w3.org/2000/svg">
<g clip-path="url(#clip0_41_95)">
<path d="M7.99607 15.9922C12.3704 15.9922 15.9922 12.3626 15.9922 7.99607C15.9922 3.62175 12.3626 0 7.98823 0C3.62175 0 0 3.62175 0 7.99607C0 12.3626 3.62959 15.9922 7.99607 15.9922ZM7.99607 14.6595C4.29593 14.6595 1.34052 11.6962 1.34052 7.99607C1.34052 4.29593 4.2881 1.33268 7.98823 1.33268C11.6884 1.33268 14.6595 4.29593 14.6595 7.99607C14.6595 11.6962 11.6962 14.6595 7.99607 14.6595ZM5.77757 11.1475C5.77757 11.5081 6.02841 11.7589 6.39687 11.7589H6.72613V12.3782C6.72613 12.6056 6.88289 12.7624 7.10239 12.7624C7.32189 12.7624 7.47868 12.6056 7.47868 12.3782V11.7589H7.98823V12.3782C7.98823 12.6056 8.15286 12.7624 8.36453 12.7624C8.58403 12.7624 8.74865 12.6056 8.74865 12.3782V11.7354C10.05 11.5943 10.8104 10.8417 10.8104 9.68937C10.8104 8.80353 10.2851 8.14502 9.47771 7.90202C10.0578 7.6198 10.4576 7.0005 10.4576 6.33416C10.4576 5.36207 9.79129 4.65656 8.74865 4.49976V3.86476C8.74865 3.63742 8.58403 3.48063 8.36453 3.48063C8.15286 3.48063 7.98823 3.63742 7.98823 3.86476V4.46839H7.47868V3.86476C7.47868 3.63742 7.32189 3.48063 7.10239 3.48063C6.88289 3.48063 6.72613 3.63742 6.72613 3.86476V4.46839H6.39687C6.03625 4.46839 5.77757 4.71927 5.77757 5.08769V11.1475ZM6.781 10.8417V8.45861H8.10582C9.22686 8.45861 9.80696 8.85841 9.80696 9.65017C9.80696 10.4263 9.25037 10.8261 8.19206 10.8339L6.781 10.8417ZM6.781 7.54139V5.37774H8.12152C8.96816 5.37774 9.4542 5.7462 9.4542 6.41254C9.4542 7.14943 8.90545 7.55709 7.90202 7.54923L6.781 7.54139Z" fill="#A76BCF"/>
</g>
<defs>
<clipPath id="clip0_41_95">
<rect width="15.9922" height="16" fill="white"/>
</clipPath>
</defs>
</svg>
