<svg width="35" height="35" viewBox="0 0 35 35" fill="none" xmlns="http://www.w3.org/2000/svg">
<g id="book-bookmark 1" clip-path="url(#clip0_4_52)">
<path id="Vector" d="M24.7917 0H10.2083C6.1877 0 2.91666 3.27104 2.91666 7.29167V29.1667C2.91666 32.3838 5.53291 35 8.74999 35H24.7917C28.8123 35 32.0833 31.729 32.0833 27.7083V7.29167C32.0833 3.27104 28.8123 0 24.7917 0ZM29.1667 7.29167V23.3333H11.6667V2.91667H17.5V15.0894C17.5 15.9979 18.6535 16.3873 19.2048 15.6654L21.1458 13.1235L23.0869 15.6654C23.6381 16.3873 24.7917 15.9979 24.7917 15.0894V2.91667C27.2037 2.91667 29.1667 4.87958 29.1667 7.29167ZM8.74999 3.185V23.3333C7.68249 23.3333 6.6952 23.6425 5.83332 24.1442V7.29167C5.83332 5.39292 7.05686 3.78875 8.74999 3.185ZM24.7917 32.0833H8.74999C4.91603 32.0148 4.91895 26.3171 8.74999 26.25H29.1667V27.7083C29.1667 30.1204 27.2037 32.0833 24.7917 32.0833Z" fill="#3F1859"/>
</g>
<defs>
<clipPath id="clip0_4_52">
<rect width="35" height="35" fill="white"/>
</clipPath>
</defs>
</svg>
