<svg width="18" height="18" viewBox="0 0 18 18" fill="none" xmlns="http://www.w3.org/2000/svg">
<g clip-path="url(#clip0_63_559)">
<path d="M2.83593 18H15.1731C17.0607 18 18 16.9843 18 14.9723V3.04721C18 1.03527 17.0607 0.0195312 15.1731 0.0195312H2.83593C0.948321 0.0195312 0 1.0255 0 3.04721V14.9723C0 16.994 0.948321 18 2.83593 18ZM2.70045 16.4276C1.89664 16.4276 1.45409 15.9685 1.45409 15.0602V5.85023C1.45409 4.9517 1.89664 4.48293 2.70045 4.48293H15.2905C16.0944 4.48293 16.5459 4.9517 16.5459 5.85023V15.0602C16.5459 15.9685 16.0944 16.4276 15.2905 16.4276H2.70045ZM7.24336 7.98915H7.77622C8.09233 7.98915 8.19169 7.8915 8.19169 7.54966V6.9734C8.19169 6.63156 8.09233 6.52415 7.77622 6.52415H7.24336C6.92725 6.52415 6.81886 6.63156 6.81886 6.9734V7.54966C6.81886 7.8915 6.92725 7.98915 7.24336 7.98915ZM10.2418 7.98915H10.7747C11.0908 7.98915 11.1992 7.8915 11.1992 7.54966V6.9734C11.1992 6.63156 11.0908 6.52415 10.7747 6.52415H10.2418C9.92576 6.52415 9.81737 6.63156 9.81737 6.9734V7.54966C9.81737 7.8915 9.92576 7.98915 10.2418 7.98915ZM13.2403 7.98915H13.7732C14.0893 7.98915 14.1977 7.8915 14.1977 7.54966V6.9734C14.1977 6.63156 14.0893 6.52415 13.7732 6.52415H13.2403C12.9242 6.52415 12.8249 6.63156 12.8249 6.9734V7.54966C12.8249 7.8915 12.9242 7.98915 13.2403 7.98915ZM4.24486 11.1829H4.76868C5.09382 11.1829 5.19318 11.0852 5.19318 10.7434V10.1671C5.19318 9.82527 5.09382 9.72762 4.76868 9.72762H4.24486C3.91972 9.72762 3.82036 9.82527 3.82036 10.1671V10.7434C3.82036 11.0852 3.91972 11.1829 4.24486 11.1829ZM7.24336 11.1829H7.77622C8.09233 11.1829 8.19169 11.0852 8.19169 10.7434V10.1671C8.19169 9.82527 8.09233 9.72762 7.77622 9.72762H7.24336C6.92725 9.72762 6.81886 9.82527 6.81886 10.1671V10.7434C6.81886 11.0852 6.92725 11.1829 7.24336 11.1829ZM10.2418 11.1829H10.7747C11.0908 11.1829 11.1992 11.0852 11.1992 10.7434V10.1671C11.1992 9.82527 11.0908 9.72762 10.7747 9.72762H10.2418C9.92576 9.72762 9.81737 9.82527 9.81737 10.1671V10.7434C9.81737 11.0852 9.92576 11.1829 10.2418 11.1829ZM13.2403 11.1829H13.7732C14.0893 11.1829 14.1977 11.0852 14.1977 10.7434V10.1671C14.1977 9.82527 14.0893 9.72762 13.7732 9.72762H13.2403C12.9242 9.72762 12.8249 9.82527 12.8249 10.1671V10.7434C12.8249 11.0852 12.9242 11.1829 13.2403 11.1829ZM4.24486 14.3863H4.76868C5.09382 14.3863 5.19318 14.2789 5.19318 13.9371V13.3608C5.19318 13.019 5.09382 12.9213 4.76868 12.9213H4.24486C3.91972 12.9213 3.82036 13.019 3.82036 13.3608V13.9371C3.82036 14.2789 3.91972 14.3863 4.24486 14.3863ZM7.24336 14.3863H7.77622C8.09233 14.3863 8.19169 14.2789 8.19169 13.9371V13.3608C8.19169 13.019 8.09233 12.9213 7.77622 12.9213H7.24336C6.92725 12.9213 6.81886 13.019 6.81886 13.3608V13.9371C6.81886 14.2789 6.92725 14.3863 7.24336 14.3863ZM10.2418 14.3863H10.7747C11.0908 14.3863 11.1992 14.2789 11.1992 13.9371V13.3608C11.1992 13.019 11.0908 12.9213 10.7747 12.9213H10.2418C9.92576 12.9213 9.81737 13.019 9.81737 13.3608V13.9371C9.81737 14.2789 9.92576 14.3863 10.2418 14.3863Z" fill="#8D8D8D"/>
</g>
<defs>
<clipPath id="clip0_63_559">
<rect width="18" height="18" fill="white"/>
</clipPath>
</defs>
</svg>
