<svg width="20" height="18" viewBox="0 0 20 18" fill="none" xmlns="http://www.w3.org/2000/svg">
<g clip-path="url(#clip0_63_563)">
<path d="M2.5471 16.475H10.9915C10.7562 16.0694 10.5777 15.6314 10.4642 15.169H2.42542C1.70347 15.169 1.30599 14.7878 1.30599 14.0334V6.38399C1.30599 5.63771 1.70347 5.24834 2.42542 5.24834H13.7332C14.4552 5.24834 14.8608 5.63771 14.8608 6.38399V8.68774C15.096 8.66338 15.3069 8.64717 15.5259 8.64717C15.7368 8.64717 15.9559 8.66338 16.1667 8.68774V4.0559C16.1667 2.38488 15.3231 1.54126 13.6278 1.54126H2.5471C0.851736 1.54126 0 2.37677 0 4.0559V13.9604C0 15.6395 0.851736 16.475 2.5471 16.475ZM6.49753 8.16044H6.97612C7.26003 8.16044 7.35738 8.07934 7.35738 7.79542V7.31684C7.35738 7.03293 7.26003 6.94368 6.97612 6.94368H6.49753C6.21362 6.94368 6.11627 7.03293 6.11627 7.31684V7.79542C6.11627 8.07934 6.21362 8.16044 6.49753 8.16044ZM9.19872 8.16044H9.66923C9.95315 8.16044 10.0505 8.07934 10.0505 7.79542V7.31684C10.0505 7.03293 9.95315 6.94368 9.66923 6.94368H9.19872C8.9067 6.94368 8.81749 7.03293 8.81749 7.31684V7.79542C8.81749 8.07934 8.9067 8.16044 9.19872 8.16044ZM11.8918 8.16044H12.3704C12.6543 8.16044 12.7436 8.07934 12.7436 7.79542V7.31684C12.7436 7.03293 12.6543 6.94368 12.3704 6.94368H11.8918C11.6079 6.94368 11.5106 7.03293 11.5106 7.31684V7.79542C11.5106 8.07934 11.6079 8.16044 11.8918 8.16044ZM3.80442 10.813H4.283C4.56692 10.813 4.65616 10.7319 4.65616 10.448V9.96939C4.65616 9.68547 4.56692 9.60434 4.283 9.60434H3.80442C3.5205 9.60434 3.42315 9.68547 3.42315 9.96939V10.448C3.42315 10.7319 3.5205 10.813 3.80442 10.813ZM6.49753 10.813H6.97612C7.26003 10.813 7.35738 10.7319 7.35738 10.448V9.96939C7.35738 9.68547 7.26003 9.60434 6.97612 9.60434H6.49753C6.21362 9.60434 6.11627 9.68547 6.11627 9.96939V10.448C6.11627 10.7319 6.21362 10.813 6.49753 10.813ZM9.19872 10.813H9.66923C9.95315 10.813 10.0505 10.7319 10.0505 10.448V9.96939C10.0505 9.68547 9.95315 9.60434 9.66923 9.60434H9.19872C8.9067 9.60434 8.81749 9.68547 8.81749 9.96939V10.448C8.81749 10.7319 8.9067 10.813 9.19872 10.813ZM3.80442 13.4737H4.283C4.56692 13.4737 4.65616 13.3844 4.65616 13.1005V12.6219C4.65616 12.338 4.56692 12.2569 4.283 12.2569H3.80442C3.5205 12.2569 3.42315 12.338 3.42315 12.6219V13.1005C3.42315 13.3844 3.5205 13.4737 3.80442 13.4737ZM6.49753 13.4737H6.97612C7.26003 13.4737 7.35738 13.3844 7.35738 13.1005V12.6219C7.35738 12.338 7.26003 12.2569 6.97612 12.2569H6.49753C6.21362 12.2569 6.11627 12.338 6.11627 12.6219V13.1005C6.11627 13.3844 6.21362 13.4737 6.49753 13.4737ZM9.19872 13.4737H9.66923C9.95315 13.4737 10.0505 13.3844 10.0505 13.1005V12.6219C10.0505 12.338 9.95315 12.2569 9.66923 12.2569H9.19872C8.9067 12.2569 8.81749 12.338 8.81749 12.6219V13.1005C8.81749 13.3844 8.9067 13.4737 9.19872 13.4737ZM15.5259 18C17.7567 18 19.6467 16.1343 19.6467 13.8793C19.6467 11.6161 17.781 9.75847 15.5259 9.75847C13.2627 9.75847 11.4051 11.6242 11.4051 13.8793C11.4051 16.1505 13.2627 18 15.5259 18ZM15.5259 16.4588C15.2258 16.4588 15.0311 16.2641 15.0311 15.964V14.3741H13.4412C13.1492 14.3741 12.9464 14.1794 12.9464 13.8793C12.9464 13.5791 13.1492 13.3844 13.4412 13.3844H15.0311V11.7945C15.0311 11.5025 15.2258 11.2997 15.5259 11.2997C15.826 11.2997 16.0207 11.5025 16.0207 11.7945V13.3844H17.6025C17.9026 13.3844 18.1055 13.5791 18.1055 13.8793C18.1055 14.1794 17.9026 14.3741 17.6025 14.3741H16.0207V15.964C16.0207 16.2641 15.826 16.4588 15.5259 16.4588Z" fill="#8D8D8D"/>
</g>
<defs>
<clipPath id="clip0_63_563">
<rect width="19.6467" height="18" fill="white"/>
</clipPath>
</defs>
</svg>
