<svg width="47" height="47" viewBox="0 0 47 47" fill="none" xmlns="http://www.w3.org/2000/svg">
<g clip-path="url(#clip0_56_6)">
<path d="M38.9708 6.05326C38.7301 5.01859 38.2813 4.04369 37.652 3.18787C37.0226 2.33205 36.2257 1.61319 35.3098 1.075C34.3939 0.536815 33.3781 0.190549 32.3242 0.0572624C31.2703 -0.0760243 30.2002 0.00645375 29.1792 0.299681L25.803 1.26514C24.9478 1.51095 24.16 1.94903 23.5 2.54589C22.84 1.94903 22.0522 1.51095 21.197 1.26514L17.8208 0.299681C16.8004 0.00798204 15.7314 -0.0733202 14.6786 0.0607089C13.6258 0.194738 12.6112 0.541303 11.6964 1.07937C10.7816 1.61743 9.98571 2.33578 9.35699 3.19079C8.72828 4.04581 8.27986 5.01967 8.03896 6.05326C5.78648 6.46307 3.74881 7.64922 2.28015 9.40553C0.811489 11.1618 0.00469214 13.3773 0 15.6667L0 29.3751C0.00310955 31.971 1.03573 34.4598 2.87135 36.2954C4.70697 38.131 7.19571 39.1636 9.79167 39.1667H21.5417V43.0834H15.6667C15.1473 43.0834 14.6492 43.2897 14.2819 43.657C13.9147 44.0242 13.7083 44.5223 13.7083 45.0417C13.7083 45.5611 13.9147 46.0592 14.2819 46.4265C14.6492 46.7937 15.1473 47.0001 15.6667 47.0001H31.3333C31.8527 47.0001 32.3508 46.7937 32.7181 46.4265C33.0853 46.0592 33.2917 45.5611 33.2917 45.0417C33.2917 44.5223 33.0853 44.0242 32.7181 43.657C32.3508 43.2897 31.8527 43.0834 31.3333 43.0834H25.4583V39.1667H37.2083C39.8043 39.1636 42.293 38.131 44.1287 36.2954C45.9643 34.4598 46.9969 31.971 47 29.3751V15.6667C46.9957 13.3787 46.1903 11.1644 44.7236 9.40825C43.2569 7.65214 41.2215 6.46511 38.9708 6.05326ZM25.4583 6.91493C25.4585 6.48961 25.5972 6.07591 25.8533 5.73638C26.1095 5.39685 26.4692 5.14994 26.8781 5.03297L30.2563 4.06751C30.8392 3.90077 31.4529 3.87165 32.0491 3.98245C32.6452 4.09326 33.2075 4.34095 33.6916 4.70603C34.1757 5.07111 34.5684 5.5436 34.8389 6.08629C35.1093 6.62898 35.25 7.22705 35.25 7.83339V15.5453C35.2473 16.3951 34.9691 17.2212 34.4571 17.8995C33.9451 18.5777 33.227 19.0717 32.4104 19.3073L25.4583 21.293V6.91493ZM13.3167 4.70006C13.7998 4.3363 14.3609 4.08982 14.9557 3.98004C15.5504 3.87027 16.1626 3.90021 16.7438 4.06751L20.1219 5.03297C20.5308 5.14994 20.8905 5.39685 21.1467 5.73638C21.4028 6.07591 21.5415 6.48961 21.5417 6.91493V21.293L14.5896 19.3073C13.773 19.0717 13.0549 18.5777 12.5429 17.8995C12.0309 17.2212 11.7527 16.3951 11.75 15.5453V7.83339C11.748 7.225 11.8887 6.62461 12.1608 6.08045C12.4329 5.53628 12.8288 5.0635 13.3167 4.70006ZM43.0833 29.3751C43.0833 30.9332 42.4644 32.4275 41.3626 33.5293C40.2608 34.6311 38.7665 35.2501 37.2083 35.2501H9.79167C8.23352 35.2501 6.73919 34.6311 5.63741 33.5293C4.53564 32.4275 3.91667 30.9332 3.91667 29.3751V15.6667C3.92169 14.456 4.30066 13.2763 5.00176 12.2892C5.70285 11.3021 6.6918 10.5556 7.83333 10.1521V15.5453C7.83813 17.2458 8.39423 18.8989 9.41821 20.2565C10.4422 21.6142 11.8788 22.6032 13.5125 23.0751L20.2707 25.008C22.3828 25.61 24.6211 25.61 26.7332 25.008L33.4914 23.0751C35.1244 22.6025 36.5601 21.6132 37.5834 20.2556C38.6066 18.898 39.1621 17.2453 39.1667 15.5453V10.1521C40.3082 10.5556 41.2972 11.3021 41.9982 12.2892C42.6993 13.2763 43.0783 14.456 43.0833 15.6667V29.3751Z" fill="#3F1859"/>
</g>
<defs>
<clipPath id="clip0_56_6">
<rect width="47" height="47" fill="white"/>
</clipPath>
</defs>
</svg>
