<svg width="35" height="35" viewBox="0 0 35 35" fill="none" xmlns="http://www.w3.org/2000/svg">
<g id="graduation-cap 1" clip-path="url(#clip0_4_8)">
<path id="Vector" d="M32.1664 7.62706L21.4127 2.50394C19.0455 1.08999 16.0992 1.0649 13.7083 2.43831L2.83355 7.62706C2.79274 7.6475 2.75043 7.66938 2.71105 7.69269C0.130348 9.16829 -0.76557 12.4566 0.710035 15.0373C1.21022 15.9122 1.94597 16.629 2.83355 17.1063L5.83337 18.5354V25.6813C5.83514 28.8766 7.91429 31.6995 10.9652 32.6492C13.0884 33.2634 15.2899 33.5641 17.5001 33.5417C19.7098 33.5664 21.9114 33.2683 24.0349 32.6565C27.0858 31.7069 29.165 28.8839 29.1667 25.6886V18.5325L32.0834 17.1383V29.1666C32.0834 29.972 32.7363 30.6249 33.5417 30.6249C34.3472 30.6249 35.0001 29.972 35.0001 29.1666V11.6666C35.0098 9.95415 33.6576 8.37218 32.1664 7.62706ZM26.25 25.6886C26.2507 27.5998 25.0107 29.2904 23.1875 29.8638C21.3386 30.392 19.4227 30.6484 17.5 30.625C15.5772 30.6484 13.6613 30.392 11.8125 29.8638C9.98927 29.2904 8.74923 27.5998 8.74999 25.6886V19.9253L13.5873 22.2294C14.7809 22.9382 16.144 23.3106 17.5321 23.3071C18.8534 23.3165 20.1524 22.9667 21.2902 22.2951L26.25 19.9252V25.6886ZM30.9167 14.4739L19.9179 19.7239C18.3844 20.6169 16.4835 20.5916 14.9742 19.6583L4.21311 14.5396C3.01361 13.8927 2.56558 12.396 3.2124 11.1966C3.43115 10.7909 3.75914 10.4547 4.15918 10.2258L15.0894 5.005C16.6234 4.11401 18.5233 4.13923 20.0331 5.07063L30.7869 10.1938C31.5777 10.6329 32.0725 11.4622 32.0833 12.3667C32.0847 13.2235 31.6435 14.0203 30.9167 14.4739Z" fill="#4F4F4F"/>
</g>
<defs>
<clipPath id="clip0_4_8">
<rect width="35" height="35" fill="white"/>
</clipPath>
</defs>
</svg>
