<svg width="16" height="16" viewBox="0 0 16 16" fill="none" xmlns="http://www.w3.org/2000/svg">
<g clip-path="url(#clip0_41_79)">
<path d="M1.68559 14.458H10.2917C11.4291 14.458 11.9704 14.1154 11.9704 13.3617C11.9704 11.5665 9.70924 8.96954 5.98863 8.96954C2.268 8.96954 0 11.5665 0 13.3617C0 14.1154 0.541306 14.458 1.68559 14.458ZM1.35669 13.4233C1.17854 13.4233 1.10317 13.3754 1.10317 13.2315C1.10317 12.1078 2.84356 10.0042 5.98863 10.0042C9.13367 10.0042 10.8672 12.1078 10.8672 13.2315C10.8672 13.3754 10.7987 13.4233 10.6206 13.4233H1.35669ZM5.98863 8.02398C7.61939 8.02398 8.94869 6.57136 8.94869 4.80356C8.94869 3.0563 7.63311 1.6722 5.98863 1.6722C4.36472 1.6722 3.02857 3.07684 3.02857 4.81725C3.03542 6.57821 4.36472 8.02398 5.98863 8.02398ZM5.98863 6.98934C4.98823 6.98934 4.13175 6.03005 4.13175 4.81725C4.13175 3.62502 4.97453 2.70684 5.98863 2.70684C7.01642 2.70684 7.84551 3.6113 7.84551 4.80356C7.84551 6.01636 7.00273 6.98934 5.98863 6.98934ZM11.0591 7.7225C11.2852 7.88009 11.6141 7.83212 11.7923 7.56488C12.3199 6.87284 12.635 5.85189 12.635 4.80356C12.635 3.75519 12.3199 2.74111 11.7923 2.0422C11.6141 1.77498 11.2852 1.72701 11.0591 1.88461C10.7782 2.07646 10.737 2.41906 10.9495 2.69999C11.3537 3.24816 11.573 4.00871 11.573 4.80356C11.573 5.59838 11.3469 6.35211 10.9495 6.90711C10.7439 7.19489 10.7782 7.5238 11.0591 7.7225ZM13.5943 9.51085C13.8478 9.68216 14.163 9.6205 14.348 9.36011C15.2251 8.15418 15.739 6.496 15.739 4.80356C15.739 3.11111 15.232 1.43923 14.348 0.246985C14.163 -0.0133896 13.8478 -0.0750572 13.5943 0.096242C13.3477 0.267542 13.2997 0.589584 13.5052 0.870516C14.2521 1.92572 14.6769 3.34408 14.6769 4.80356C14.6769 6.26303 14.2384 7.67454 13.5052 8.73657C13.3065 9.01751 13.3477 9.33956 13.5943 9.51085Z" fill="#A76BCF"/>
</g>
<defs>
<clipPath id="clip0_41_79">
<rect width="15.739" height="16" fill="white"/>
</clipPath>
</defs>
</svg>
