<svg width="16" height="18" viewBox="0 0 16 18" fill="none" xmlns="http://www.w3.org/2000/svg">
<g clip-path="url(#clip0_63_551)">
<path d="M4.70278 3.08876C4.70278 4.53073 5.67772 5.73508 7.01318 6.071V11.2572C7.01318 13.6741 7.44743 14.9932 7.77513 14.9932C8.11105 14.9932 8.53711 13.6823 8.53711 11.2572V6.071C9.87253 5.7433 10.8557 4.53073 10.8557 3.08876C10.8557 1.39281 9.48748 0 7.77513 0C6.07099 0 4.70278 1.39281 4.70278 3.08876ZM6.89848 3.26081C6.34138 3.26081 5.84978 2.76923 5.84978 2.19572C5.84978 1.63041 6.34138 1.14702 6.89848 1.14702C7.48018 1.14702 7.9554 1.63041 7.9554 2.19572C7.9554 2.76923 7.48018 3.26081 6.89848 3.26081ZM7.78335 17.9918C12.7237 17.9918 15.5585 16.2877 15.5585 14.4852C15.5585 12.3223 12.1256 11.0032 9.87253 10.9786V12.1748C11.4538 12.1993 13.9035 13.0596 13.9035 14.2886C13.9035 15.6978 11.3063 16.6973 7.78335 16.6973C4.24397 16.6973 1.66317 15.7142 1.66317 14.2886C1.66317 13.0596 4.10467 12.1993 5.68594 12.1748V10.9786C3.43286 11.0032 0 12.3223 0 14.4852C0 16.2877 2.84297 17.9918 7.78335 17.9918Z" fill="#8D8D8D"/>
</g>
<defs>
<clipPath id="clip0_63_551">
<rect width="15.5585" height="18" fill="white"/>
</clipPath>
</defs>
</svg>
