<svg width="16" height="16" viewBox="0 0 16 16" fill="none" xmlns="http://www.w3.org/2000/svg">
<g clip-path="url(#clip0_41_63)">
<path d="M3.89804 8.84274H7.99215C8.29804 8.84274 8.54117 8.60753 8.54117 8.29398V3.01029C8.54117 2.70456 8.29804 2.46938 7.99215 2.46938C7.68628 2.46938 7.45099 2.70456 7.45099 3.01029V7.75306H3.89804C3.5843 7.75306 3.34902 7.98823 3.34902 8.29398C3.34902 8.60753 3.5843 8.84274 3.89804 8.84274ZM7.99998 15.9922C12.3765 15.9922 16 12.3626 16 7.99607C16 3.62175 12.3686 0 7.99215 0C3.62353 0 0 3.62175 0 7.99607C0 12.3626 3.63137 15.9922 7.99998 15.9922ZM7.99998 14.6595C4.29804 14.6595 1.34117 11.6962 1.34117 7.99607C1.34117 4.29593 4.2902 1.33268 7.99215 1.33268C11.6941 1.33268 14.6667 4.29593 14.6667 7.99607C14.6667 11.6962 11.702 14.6595 7.99998 14.6595Z" fill="#A76BCF"/>
</g>
<defs>
<clipPath id="clip0_41_63">
<rect width="16" height="16" fill="white"/>
</clipPath>
</defs>
</svg>
