<svg width="35" height="35" viewBox="0 0 35 35" fill="none" xmlns="http://www.w3.org/2000/svg">
<g id="play 1">
<path id="Vector" d="M29.8871 11.62L15.9746 1.41167C14.888 0.615985 13.6022 0.13679 12.2599 0.0272242C10.9175 -0.0823419 9.57108 0.182002 8.36981 0.790945C7.16853 1.39989 6.15938 2.32963 5.45425 3.47709C4.74912 4.62455 4.37556 5.94488 4.375 7.29167V27.7083C4.37524 29.0557 4.74882 30.3767 5.45428 31.5247C6.15973 32.6727 7.16948 33.6027 8.37145 34.2116C9.57341 34.8206 10.9206 35.0845 12.2635 34.9742C13.6064 34.864 14.8924 34.3837 15.979 33.5869L29.8915 23.3785C30.815 22.7013 31.566 21.816 32.0836 20.7945C32.6013 19.7729 32.871 18.6438 32.871 17.4985C32.871 16.3533 32.6013 15.2242 32.0836 14.2026C31.566 13.1811 30.815 12.2958 29.8915 11.6185L29.8871 11.62ZM28.1604 21.0263L14.2479 31.2346C13.5961 31.7109 12.8251 31.9976 12.0204 32.0629C11.2157 32.1282 10.4086 31.9695 9.68854 31.6045C8.96843 31.2394 8.36337 30.6823 7.94034 29.9946C7.51731 29.307 7.2928 28.5157 7.29167 27.7083V7.29167C7.28357 6.48281 7.50385 5.68806 7.92717 4.99877C8.3505 4.30948 8.95971 3.7536 9.68479 3.39501C10.3015 3.08131 10.9835 2.91743 11.6754 2.91667C12.6028 2.92022 13.5045 3.2213 14.2479 3.77563L28.1604 13.984C28.7138 14.3904 29.1638 14.9214 29.474 15.534C29.7842 16.1466 29.9458 16.8236 29.9458 17.5102C29.9458 18.1969 29.7842 18.8739 29.474 19.4864C29.1638 20.099 28.7138 20.63 28.1604 21.0365V21.0263Z" fill="#3F1859"/>
</g>
</svg>
