<svg width="163" height="165" viewBox="0 0 163 165" fill="none" xmlns="http://www.w3.org/2000/svg">
<path d="M44.4585 13.4725L90.096 3.03429C98.2601 1.16699 106.83 3.119 113.38 8.33773L149.996 37.5104C156.546 42.7291 160.363 50.6466 160.367 59.0216L160.388 105.837C160.392 114.212 156.582 122.133 150.037 127.358L113.448 156.564C106.902 161.789 98.3337 163.748 90.1679 161.888L44.5211 151.492C36.3552 149.632 29.4807 144.154 25.8436 136.611L5.51179 94.4401C1.87462 86.8961 1.87064 78.1065 5.50097 70.5593L25.7945 28.3704C29.4249 20.8232 36.2944 15.3398 44.4585 13.4725Z" stroke="#3F1859" stroke-width="4"/>
</svg>
