<svg width="18" height="18" viewBox="0 0 18 18" fill="none" xmlns="http://www.w3.org/2000/svg">
<g clip-path="url(#clip0_59_23)">
<path d="M5.78024 6.94196C6.07349 7.23521 6.07349 7.70996 5.78024 8.00246C5.48699 8.29571 5.01224 8.29571 4.71974 8.00246C4.42649 7.70921 4.42649 7.23446 4.71974 6.94196C5.01299 6.64871 5.48774 6.64871 5.78024 6.94196ZM16.1692 11.5057L15.7455 11.9295C15.7252 12.8542 15.3667 13.7722 14.6692 14.4787L12.294 16.8847C11.5867 17.601 10.6432 17.997 9.63674 18H9.62399C8.62274 18 7.68149 17.61 6.97349 16.902L1.41149 11.3872C0.923993 10.9005 0.688493 10.2307 0.763493 9.54746L1.33724 4.36046C1.37549 4.01846 1.64024 3.74621 1.98074 3.69971L7.14749 2.99321C7.84649 2.90021 8.54999 3.13796 9.04349 3.63146L14.6497 9.19046C14.94 9.48071 15.1725 9.80771 15.348 10.1565C15.957 9.28196 15.8715 8.06021 15.0915 7.28021L9.39824 1.72646C9.22649 1.55471 8.98949 1.47521 8.75999 1.50746L3.59324 2.21396C3.18149 2.26946 2.80424 1.98221 2.74799 1.57271C2.69249 1.16246 2.97974 0.784465 3.38924 0.728215L8.55674 0.0209646C9.24749 -0.0772854 9.95849 0.164215 10.4527 0.659965L16.1445 6.21371C17.604 7.67246 17.6122 10.044 16.1685 11.5065L16.1692 11.5057ZM13.5907 10.2532L7.98449 4.69421C7.81724 4.52696 7.58249 4.44971 7.34924 4.47896L2.76299 5.10671L2.25374 9.71171C2.22899 9.93896 2.30699 10.1625 2.46899 10.3237L8.03099 15.8385C8.45774 16.266 9.02249 16.4992 9.62324 16.4992H9.63074C10.2352 16.4977 10.8015 16.26 11.2252 15.8295L13.6005 13.4235C14.4667 12.546 14.4622 11.1232 13.59 10.2517L13.5907 10.2532Z" fill="#96CD31"/>
</g>
<defs>
<clipPath id="clip0_59_23">
<rect width="18" height="18" fill="white"/>
</clipPath>
</defs>
</svg>
