<svg width="173" height="177" viewBox="0 0 173 177" fill="none" xmlns="http://www.w3.org/2000/svg">
<path d="M75.0452 77.8436C75.9798 76.6107 76.7144 75.4571 77.6265 74.4751C78.9183 73.0932 80.5414 72.8102 82.2268 73.7128C83.7162 74.5107 84.5287 75.8493 84.409 77.5429C84.2657 79.5048 82.9241 80.5134 81.1324 80.8795C79.9415 81.1221 78.703 81.1388 77.2564 81.2761C77.3507 84.8842 77.8263 88.3502 80.3257 91.1839C81.9649 93.0419 84.1358 93.1785 86.207 92.213C88.9569 90.9346 91.5645 89.3556 94.2379 87.9143C96.7601 86.5573 99.4552 85.8991 102.295 86.3498C105.668 86.879 108.024 88.8108 109.529 91.9022C111.545 96.0347 113.612 100.146 115.777 104.199C116.498 105.551 117.463 106.83 118.541 107.922C121.139 110.554 124.341 110.502 126.917 107.843C127.717 107.018 128.21 105.906 128.979 105.047C129.372 104.608 130.065 104.442 130.623 104.154C130.844 104.816 131.437 105.649 131.225 106.114C128.289 112.554 121.383 114.998 116.445 109.415C114.04 106.699 112.389 103.287 110.553 100.105C109.359 98.0353 108.511 95.767 107.376 93.6561C104.665 88.5979 100.674 87.4496 95.5696 90.2437C93.5282 91.3621 91.5907 92.6786 89.5448 93.7861C85.1562 96.1631 81.0514 95.808 78.2752 92.8695C75.8243 90.274 74.962 86.9778 74.7746 83.6034C74.6529 81.392 73.9827 80.3032 71.9378 79.3007C70.293 78.4956 68.8956 76.74 67.9275 75.0893C66.6942 72.9857 66.0485 70.5438 65.0678 68.284C63.8451 65.4643 62.2528 64.5314 59.356 65.4982C56.689 66.3861 54.0606 67.5799 51.6707 69.0511C48.5154 71.0027 43.3251 71.3968 40.4221 69.3627C40.0458 69.1003 39.7507 68.1898 39.9259 67.8074C40.1053 67.4149 40.9328 67.0528 41.4189 67.1212C42.4294 67.2588 43.3851 67.7625 44.3903 67.9787C46.5944 68.4488 48.5958 68.0165 50.4193 66.5993C53.1854 64.4458 56.3681 63.2199 59.8202 62.6908C63.1007 62.1867 65.5902 63.4528 67.0538 66.3627C68.2138 68.6663 69.1043 71.1162 70.0343 73.5285C70.9491 75.9047 72.5674 77.3774 75.0395 77.8502L75.0452 77.8436ZM77.9516 78.3216C79.4885 78.6548 80.8011 78.7852 81.6881 77.5298C81.8703 77.2759 81.3381 76.0406 80.9856 75.9674C79.2979 75.608 78.7787 76.9938 77.948 78.3231L77.9516 78.3216Z" fill="white"/>
</svg>
