<svg width="65" height="59" viewBox="0 0 65 59" fill="none" xmlns="http://www.w3.org/2000/svg">
<g clip-path="url(#clip0_2_76)">
<path d="M62.3238 25.069C61.8834 29.0287 60.8845 32.7429 58.406 35.9916C55.8489 39.3442 50.2726 41.8941 45.6949 39.2602C44.5889 38.6217 44.3878 39.4279 43.9842 40.0947C42.4598 42.6147 40.6343 44.8207 37.6527 45.776C33.244 47.1869 29.8046 45.3368 26.8693 42.2359C25.693 40.9961 24.9934 40.7459 23.4248 41.7439C19.5044 44.237 15.0395 42.7172 12.0427 38.0842C8.33482 32.3534 7.11006 26.1934 8.49861 19.6116C8.62294 19.0187 9.03927 18.4181 8.64638 17.7572L9.41973 16.4177C10.1358 16.1574 10.0454 15.2055 10.7271 14.9163C11.3056 14.5811 11.8837 14.5758 12.3003 15.1554C12.7239 15.7391 12.6258 16.3426 12.3236 16.9865C9.05884 23.9908 10.1467 30.7092 14.4048 37.1013C16.6919 40.5378 19.9534 41.2905 22.6342 39.2979C23.446 38.6951 23.7886 38.1739 23.2932 37.056C21.69 33.4311 20.7317 29.645 20.8519 25.6857C20.9595 22.0855 22.6094 19.8866 25.2145 19.8081C27.7301 19.7323 29.4886 21.9638 29.8646 25.6579C30.2763 29.7162 29.4578 33.5435 27.6669 37.1034C27.0473 38.3372 27.2594 39.0701 28.0843 40.003C29.4307 41.5264 31.0793 42.6229 32.9252 43.3857C35.4828 44.4418 38.4629 43.3365 40.434 40.6855C40.9708 39.9645 41.34 39.1242 41.858 38.3878C42.5009 37.4749 42.419 36.7494 41.7172 35.7881C39.4881 32.7332 38.2042 29.3424 38.4106 25.555C38.5512 22.9821 39.9372 21.2322 41.8766 21.0859C44.4805 20.8892 46.414 22.2633 47.0894 24.941C47.9187 28.2277 47.1215 31.3755 46.2335 34.48C45.6488 36.5207 45.8961 37.0162 48.0586 37.6C51.2451 38.4586 54.7502 36.9419 56.7768 33.8574C58.2149 31.6718 59.1497 29.2816 59.5234 26.6986C59.692 25.539 60.143 24.782 61.2873 24.4706L62.3203 25.067L62.3238 25.069Z" fill="white"/>
<path d="M10.7305 14.9183C10.3062 15.4284 10.3005 16.2977 9.42313 16.4197L10.3903 14.7445C10.5016 14.8087 10.6114 14.8676 10.7305 14.9183Z" fill="#3F1859"/>
</g>
<defs>
<clipPath id="clip0_2_76">
<rect width="37.806" height="52.3468" fill="white" transform="translate(64.2367 26.1734) rotate(120)"/>
</clipPath>
</defs>
</svg>
