<svg width="25" height="25" viewBox="0 0 25 25" fill="none" xmlns="http://www.w3.org/2000/svg">
<path d="M0 11.5261C0 12.6227 0.619131 13.311 1.63322 13.311H23.3561C24.3702 13.311 25 12.6227 25 11.5261V9.83464C25 8.73804 24.3702 8.03812 23.3561 8.03812H1.63322C0.619131 8.03812 0 8.73804 0 9.83464V11.5261ZM2.04953 9.89294H22.9398C23.1746 9.89294 23.3134 10.0446 23.3134 10.3012V11.0478C23.3134 11.3045 23.1746 11.4678 22.9398 11.4678H2.04953C1.81469 11.4678 1.68659 11.3045 1.68659 11.0478V10.3012C1.68659 10.0446 1.81469 9.89294 2.04953 9.89294ZM6.78905 25H18.2109C20.6768 25 21.4347 23.4251 21.7549 21.7336L23.4522 12.8444L21.7763 12.5294L20.1858 21.022C19.8975 22.5152 19.4705 23.1335 17.9121 23.1335H7.08795C5.52947 23.1335 5.10247 22.5152 4.81425 21.022L3.22374 12.5294L1.54782 12.8444L3.24509 21.7336C3.56533 23.4251 4.32323 25 6.78905 25ZM7.95262 21.8619C8.34757 21.7919 8.56107 21.4769 8.50769 21.1037L7.62168 15.0025C7.55767 14.6175 7.25877 14.4076 6.87449 14.4659C6.47949 14.5476 6.25532 14.8509 6.31938 15.2242L7.20539 21.3253C7.26944 21.7103 7.55767 21.9319 7.95262 21.8619ZM11.0162 21.7919C11.4005 21.7686 11.6567 21.4886 11.6353 21.1037L11.2938 15.0609C11.2617 14.6642 10.9949 14.3959 10.5999 14.4309C10.2157 14.4659 9.95943 14.7459 9.98077 15.1425L10.3224 21.1736C10.3437 21.5703 10.6319 21.8269 11.0162 21.7919ZM13.9944 21.7919C14.3787 21.8269 14.667 21.5703 14.6883 21.1736L15.0299 15.1425C15.0512 14.7459 14.7951 14.4659 14.4108 14.4309C14.0158 14.3959 13.7489 14.6642 13.7169 15.0609L13.3753 21.1037C13.354 21.4886 13.6102 21.7686 13.9944 21.7919ZM17.0474 21.8619C17.4317 21.9319 17.7306 21.7103 17.7946 21.3253L18.6913 15.2242C18.7447 14.8509 18.5205 14.5476 18.1256 14.4659C17.7413 14.4076 17.4424 14.6175 17.3783 15.0025L16.4923 21.1037C16.439 21.4769 16.6524 21.7919 17.0474 21.8619ZM3.44791 8.51642H5.59353L9.32964 1.41203C9.61787 0.852077 9.38303 0.36212 8.98803 0.128807C8.60375 -0.0928405 8.0914 -0.0578436 7.80317 0.467111L3.44791 8.51642ZM19.4065 8.51642H21.5521L17.1969 0.467111C16.9193 -0.0461779 16.4069 -0.0811749 16.012 0.128807C15.6277 0.36212 15.3822 0.852077 15.6704 1.41203L19.4065 8.51642Z" fill="white"/>
</svg>
