<svg width="39" height="18" viewBox="0 0 39 18" fill="none" xmlns="http://www.w3.org/2000/svg">
<g clip-path="url(#clip0_63_567)">
<path d="M2.33952 18H14.3427C15.9279 18 16.6822 17.5225 16.6822 16.4721C16.6822 13.9703 13.5215 10.3511 8.34589 10.3511C3.16074 10.3511 0 13.9703 0 16.4721C0 17.5225 0.754376 18 2.33952 18ZM1.89071 16.5581C1.64244 16.5581 1.5374 16.4912 1.5374 16.2907C1.5374 14.7246 3.96285 11.7931 8.34589 11.7931C12.7194 11.7931 15.1448 14.7246 15.1448 16.2907C15.1448 16.4912 15.0494 16.5581 14.8011 16.5581H1.89071ZM8.34589 9.03339C10.609 9.03339 12.4711 7.00898 12.4711 4.54533C12.4711 2.11031 10.6377 0.181396 8.34589 0.181396C6.07319 0.181396 4.21114 2.13896 4.22068 4.56441C4.22068 7.01852 6.07319 9.03339 8.34589 9.03339ZM8.34589 7.59149C6.94217 7.59149 5.7581 6.2546 5.7581 4.56441C5.74856 2.90288 6.92308 1.62331 8.34589 1.62331C9.76871 1.62331 10.9337 2.88379 10.9337 4.54533C10.9337 6.23552 9.74962 7.59149 8.34589 7.59149ZM19.0408 10.3511C17.4462 10.3511 16.0424 10.7045 14.8584 11.2583C15.2976 11.5926 15.7082 11.9459 16.0616 12.3278C16.9114 12.0032 17.9141 11.7931 19.0408 11.7931C23.4239 11.7931 25.8494 14.7246 25.8494 16.2907C25.8494 16.4912 25.7443 16.5581 25.496 16.5581H17.8663C17.8568 17.0737 17.7613 17.5607 17.4557 18H25.0377C26.6324 18 27.3867 17.5225 27.3867 16.4721C27.3867 13.9703 24.226 10.3511 19.0408 10.3511ZM19.0504 9.03339C21.3231 9.03339 23.1756 7.00898 23.1756 4.54533C23.1756 2.11031 21.3422 0.181396 19.0504 0.181396C16.7777 0.181396 14.9157 2.13896 14.9252 4.56441C14.9348 7.01852 16.7777 9.03339 19.0504 9.03339ZM19.0504 7.59149C17.6562 7.59149 16.4626 6.2546 16.4626 4.56441C16.453 2.90288 17.6276 1.62331 19.0504 1.62331C20.4732 1.62331 21.6382 2.88379 21.6382 4.54533C21.6382 6.23552 20.4541 7.59149 19.0504 7.59149ZM29.7549 10.3511C28.1602 10.3511 26.747 10.7045 25.5629 11.2679C26.0117 11.5925 26.4127 11.9459 26.766 12.3469C27.6159 12.0032 28.6281 11.7931 29.7549 11.7931C34.1379 11.7931 36.5634 14.7246 36.5634 16.2907C36.5634 16.4912 36.4584 16.5581 36.2101 16.5581H28.5708C28.5613 17.0737 28.4658 17.5607 28.1507 18H35.7517C37.3464 18 38.1008 17.5225 38.1008 16.4721C38.1008 13.9703 34.9401 10.3511 29.7549 10.3511ZM29.7549 9.03339C32.0276 9.03339 33.8801 7.00898 33.8801 4.54533C33.8801 2.11031 32.0467 0.181396 29.7549 0.181396C27.4918 0.181396 25.6297 2.13896 25.6297 4.56441C25.6393 7.01852 27.4918 9.03339 29.7549 9.03339ZM29.7549 7.59149C28.3608 7.59149 27.1671 6.2546 27.1671 4.56441C27.1671 2.90288 28.3416 1.62331 29.7549 1.62331C31.1777 1.62331 32.3427 2.88379 32.3427 4.54533C32.3427 6.23552 31.1682 7.59149 29.7549 7.59149Z" fill="#8D8D8D"/>
</g>
<defs>
<clipPath id="clip0_63_567">
<rect width="38.1008" height="18" fill="white"/>
</clipPath>
</defs>
</svg>
