<svg width="25" height="25" viewBox="0 0 25 25" fill="none" xmlns="http://www.w3.org/2000/svg">
<path d="M12.4939 24.9878C19.3288 24.9878 24.9878 19.3165 24.9878 12.4939C24.9878 5.65899 19.3165 0 12.4816 0C5.65899 0 0 5.65899 0 12.4939C0 19.3165 5.67123 24.9878 12.4939 24.9878ZM12.4939 22.9054C6.71239 22.9054 2.09456 18.2754 2.09456 12.4939C2.09456 6.71239 6.70015 2.08231 12.4816 2.08231C18.2631 2.08231 22.9054 6.71239 22.9054 12.4939C22.9054 18.2754 18.2754 22.9054 12.4939 22.9054ZM9.50514 15.3601C12.3591 18.2263 15.9971 20.0392 18.1528 17.8956C18.2386 17.8099 18.2998 17.7364 18.3611 17.6507C18.9245 17.0259 19.0715 16.2053 18.3611 15.6541C17.7976 15.2499 17.1974 14.8212 16.1808 14.123C15.4704 13.6208 15.0049 13.7433 14.4537 14.2945L13.9637 14.7722C13.829 14.9069 13.584 14.8947 13.4248 14.7967C12.9838 14.5394 12.2734 13.9637 11.5875 13.2778C10.9138 12.6041 10.3136 11.8447 10.0686 11.4405C9.98287 11.3057 9.93385 11.0852 10.0931 10.926L10.5708 10.4116C11.122 9.83587 11.2445 9.39491 10.73 8.67224L9.22342 6.54091C8.70897 5.81824 7.96176 5.96519 7.14111 6.56539C7.07985 6.61441 7.03088 6.66337 6.98186 6.71239C4.81382 8.86821 6.65113 12.5061 9.50514 15.3601Z" fill="white"/>
</svg>
