<svg width="159" height="82" viewBox="0 0 159 82" fill="none" xmlns="http://www.w3.org/2000/svg">
<path d="M150.957 23.1851C160.585 31.9889 160.585 47.1568 150.957 55.9606L132.011 73.284C117.762 86.3132 94.8208 76.2043 94.8208 56.8962V22.2495C94.8208 2.94138 117.762 -7.16745 132.011 5.8617L150.957 23.1851Z" fill="#FAF748"/>
<path d="M131.728 24.2577C141.356 33.0616 141.356 48.2295 131.728 57.0333L112.782 74.3567C98.5326 87.3858 75.5918 77.277 75.5918 57.9689V23.3222C75.5918 4.01405 98.5326 -6.09479 112.782 6.93437L131.728 24.2577Z" fill="#D9D618"/>
<path d="M112.499 25.3304C122.127 34.1342 122.127 49.3021 112.499 58.1059L93.553 75.4293C79.3036 88.4585 56.3628 78.3496 56.3628 59.0415V24.3948C56.3628 5.08667 79.3036 -5.02216 93.553 8.00699L112.499 25.3304Z" fill="#3F1859"/>
<path d="M96.9493 60.6271C95.6567 60.6302 94.364 60.6353 93.071 60.6362C91.0976 60.6376 89.1243 60.6328 87.1506 60.6418C86.9203 60.643 86.8411 60.6038 86.8414 60.3485C86.8488 50.5844 86.8479 40.8207 86.8456 31.0566C86.8456 30.8777 86.8357 30.761 87.0924 30.7619C90.3394 30.7724 93.5862 30.7687 96.8332 30.7692C96.8718 30.7692 96.9104 30.7752 96.9493 30.7783V60.6271Z" fill="white"/>
<path d="M96.9493 28.0379C87.5641 28.0379 78.1789 28.0362 68.7937 28.0453C68.4943 28.0456 68.4324 27.9686 68.4339 27.6804C68.4461 25.1658 68.4412 22.6508 68.4401 20.1359C68.4401 20.0297 68.4293 19.9238 68.4236 19.8176C77.8446 19.8176 87.2656 19.8184 96.6866 19.8122C96.9053 19.8122 96.9556 19.8613 96.9547 20.08C96.9459 22.7326 96.949 25.3853 96.949 28.0376L96.9493 28.0379Z" fill="white"/>
<path d="M65.857 19.8179C65.8468 19.9724 65.8275 20.1266 65.8278 20.281C65.8326 22.6401 65.8406 24.9991 65.8465 27.3584C65.8479 27.8891 65.7741 27.9615 65.2411 27.9624C62.4629 27.9669 59.685 27.9715 56.9069 27.9755C56.3517 27.9763 56.2855 27.9104 56.2858 27.3618C56.2869 24.8471 56.2884 22.3328 56.2898 19.8182C59.4789 19.8182 62.6677 19.8182 65.8568 19.8182L65.857 19.8179Z" fill="white"/>
<path d="M27.966 60.6711C24.8263 60.6353 21.6864 60.618 18.5473 60.5578C16.0573 60.5098 13.6875 59.9134 11.4219 58.882C9.00016 57.7796 6.90155 56.2294 5.11021 54.2779C2.67282 51.6227 1.06294 48.5307 0.360379 44.9827C0.115873 43.7494 0.000861009 42.5055 0.00341682 41.2481C0.0108003 37.9639 0.0090964 34.6799 9.07166e-06 31.3957C-0.000842865 31.1333 0.0579408 31.0538 0.332833 31.0546C3.26889 31.0651 6.20495 31.0651 9.14101 31.0546C9.40568 31.0538 9.45822 31.1273 9.45736 31.3784C9.44828 34.3903 9.44941 37.4024 9.45225 40.4143C9.45452 42.8775 10.3448 44.992 11.9839 46.8092C13.5404 48.5347 15.4686 49.567 17.7726 49.879C21.9155 50.4399 25.8836 48.3558 27.7198 44.791C28.4894 43.297 28.7952 41.707 28.7978 40.0437C28.802 37.0514 28.8094 34.0589 28.8049 31.0666C28.8046 30.8289 28.8551 30.7619 29.1028 30.7624C32.2623 30.7718 35.4221 30.7695 38.5817 30.7664C38.7722 30.7664 38.9083 30.7604 38.9074 31.0288C38.8955 34.6137 38.9236 38.1993 38.8807 41.7837C38.8447 44.7879 38.035 47.6004 36.5677 50.2229C36.4135 50.4984 36.4152 50.4967 36.7262 50.5203C38.8529 50.6819 40.5641 49.9009 41.8543 48.2195C42.4745 47.411 42.7281 46.454 42.8064 45.4501C42.8692 44.6462 42.886 43.8402 42.8851 43.0334C42.8809 39.0305 42.8857 35.0275 42.8772 31.0248C42.8766 30.7718 42.9317 30.7031 43.1932 30.7039C46.382 30.7141 49.5708 30.713 52.7599 30.7053C52.9931 30.7048 53.0709 30.7519 53.0703 31.0027C53.0621 35.1221 53.0709 39.2418 53.0612 43.3612C53.0572 44.992 53.0283 46.6212 52.7451 48.2374C52.2604 51.0059 51.0325 53.4171 49.2176 55.5297C46.6575 58.5097 43.3329 60.0381 39.4802 60.5229C38.338 60.6666 37.1905 60.6464 36.0446 60.6512C33.3519 60.6626 30.659 60.6549 27.966 60.6549C27.966 60.6603 27.966 60.6657 27.966 60.6711Z" fill="#3F1859"/>
<path d="M63.5205 50.5455C65.7077 50.5455 67.8949 50.5362 70.0818 50.5492C71.3398 50.5566 72.3536 50.0855 73.1729 49.1336C73.9817 48.1939 74.5104 47.156 74.5738 45.8906C74.7007 43.3506 72.5558 40.8749 70.0258 40.6239C68.9007 40.5123 67.7764 40.487 66.6496 40.4853C63.3833 40.4802 60.117 40.4836 56.8506 40.4833C56.7632 40.4833 56.6751 40.4771 56.5882 40.4836C56.3869 40.4989 56.3341 40.4132 56.3344 40.2124C56.3412 37.152 56.3429 34.0918 56.3324 31.0314C56.3315 30.7673 56.4397 30.7269 56.655 30.7275C57.4811 30.7306 58.3074 30.7232 59.1338 30.7241C62.1571 30.7275 65.1803 30.7269 68.2033 30.7389C70.0804 30.7462 71.949 30.8323 73.7786 31.3216C76.4563 32.0375 78.6702 33.492 80.5439 35.5009C82.4545 37.5492 83.6835 39.9443 84.1371 42.7111C84.6334 45.7403 84.575 48.7338 83.3016 51.5951C81.8732 54.8047 79.7178 57.3653 76.5292 58.9644C74.7737 59.845 72.8957 60.2977 70.9525 60.5089C69.6266 60.6529 68.2958 60.6694 66.964 60.6685C63.5031 60.666 60.0423 60.664 56.5817 60.6748C56.2946 60.6756 56.2338 60.5964 56.235 60.3201C56.2452 57.1625 56.2446 54.0053 56.2358 50.8477C56.2353 50.5978 56.2852 50.5237 56.5502 50.5248C58.8734 50.5367 61.1969 50.5316 63.5202 50.5316C63.5202 50.5362 63.5202 50.5407 63.5202 50.5453L63.5205 50.5455Z" fill="white"/>
<path d="M41.6654 66.623C41.6654 68.0412 41.666 69.4597 41.6654 70.8779C41.6651 71.3927 41.6058 71.4521 41.1037 71.4532C38.3042 71.4589 35.5045 71.4651 32.705 71.4703C32.1876 71.4711 32.1121 71.3967 32.1126 70.8847C32.1155 68.3976 32.12 65.9108 32.1226 63.4237C32.1229 63.0645 32.1081 62.705 32.1163 62.3457C32.1249 61.9862 32.2123 61.9058 32.5781 61.9064C35.4747 61.9118 38.3715 61.9189 41.2681 61.928C41.6577 61.9291 41.6578 61.9365 41.6578 62.3094C41.6578 63.7472 41.6578 65.1849 41.6578 66.6227C41.6603 66.6227 41.6629 66.6227 41.6654 66.6227V66.623Z" fill="#3F1859"/>
<path d="M48.4304 61.968C49.917 61.968 51.4039 61.9729 52.8903 61.9626C53.1069 61.9612 53.1635 62.0129 53.1626 62.2327C53.1538 64.5054 53.1563 66.7778 53.1578 69.0505C53.1581 69.6914 53.1674 70.3321 53.1669 70.973C53.1666 71.3692 53.0848 71.4515 52.6866 71.4524C51.4428 71.4549 50.199 71.4518 48.9549 71.4538C47.3612 71.4563 45.7678 71.4626 44.1741 71.466C43.6706 71.4671 43.6198 71.4109 43.6203 70.9193C43.6235 68.035 43.6277 65.1506 43.6203 62.2662C43.6198 61.9953 43.7064 61.9087 43.971 61.9101C45.4574 61.918 46.9437 61.9141 48.4301 61.9141C48.4301 61.9323 48.4301 61.9501 48.4301 61.9683L48.4304 61.968Z" fill="#3F1859"/>
<path d="M18.8412 30.644C20.3372 30.644 21.8332 30.6471 23.3292 30.64C23.5157 30.6392 23.5731 30.6852 23.5728 30.8794C23.5683 33.8121 23.5728 36.7447 23.5728 39.6777C23.5728 40.0568 23.5081 40.1144 23.0955 40.115C20.6274 40.1184 18.1596 40.1201 15.6916 40.1235C15.332 40.1241 14.9728 40.1326 14.6133 40.1334C14.0683 40.1346 14.0274 40.094 14.028 39.5609C14.0311 36.7836 14.0348 34.0063 14.0388 31.2293C14.0396 30.558 13.9156 30.5912 14.6726 30.5932C16.0621 30.5966 17.4517 30.5943 18.8409 30.5943C18.8409 30.6111 18.8409 30.6278 18.8409 30.6446L18.8412 30.644Z" fill="#3F1859"/>
</svg>
